<?xml version="1.0" encoding="UTF-8" standalone="yes"?>
<svg version="1.2" baseProfile="tiny-ps" viewBox="0 0 300 300" xmlns="http://www.w3.org/2000/svg">
  <title>bimi-svg-tiny-12-ps</title>
  <g>
    <g fill="#fefffd" transform="matrix(.1 0 0 -.1 0 300)">
      <path d="M0 1500V0h3000v3000H0V1500z"/>
    </g>
    <g fill="#eddac1" transform="matrix(.1 0 0 -.1 0 300)">
      <path d="m568 1988-16-13-70-206c-39-114-68-210-65-213 4-3 25-6 49-6h42l14 43 15 42 71 3 72 3 6-18c3-10 10-30 16-45l10-28h98v13c0 6-32 102-71 212l-72 200-15 13c-9 6-28 12-42 12s-33-6-42-12zm66-202c9-27 16-51 16-53s-18-3-40-3-40 3-40 7c0 3 8 30 17 60l17 53 7-7c3-5 14-30 23-57zm256 205-35-6v-430h90l5 133 5 133 43-86 42-86 37 3 37 3 39 75c21 41 41 78 45 82l7 7 1-42c1-23 2-84 3-134l1-93h90v440h-120l-51-107-50-108-50 104c-27 58-50 106-52 106-9 8-58 11-87 6zm472-3-12-12v-54l13-9 12-10 80-2c44-2 81-4 82-5 2-1-38-63-87-137l-90-134v-75h320v89l-95 3-94 3 94 138 95 137v68l-16 6c-9 3-77 6-153 6h-137l-12-12zm390 0-12-12v-55l21-11 21-12 24 6 24 6 6 27 7 26-10 16-10 16-29 3-29 3-13-13zm559-116c-19-9-44-29-55-44l-20-28-4-59-4-59 12-36 11-35 30-25 30-25 34-7 34-6 32 16c18 9 34 16 36 16 8 0-10-45-25-62l-15-18h-37c-20 0-51 5-69 11-38 13-42 10-44-33l-2-33 35-12c19-6 55-12 80-12l45-1 43 20 43 19 20 45 20 45-3 163-3 163-34 3-34 3-7-10-6-11-37 15c-47 19-64 19-106-3zm122-76 17-13v-131l-30-11-31-10-25 9-24 10-10 25c-6 15-10 42-10 61v34l20 20 20 20h28c15 0 35-7 45-14zm-688 72c-3-8-4-81-3-163l3-150h90v320l-43 3-42 3-5-13zm149-1c-2-7-3-80-2-162l3-150 43-3 42-3v230l22 15c12 9 32 16 45 16h22l15-22 16-22v-217l43 3 42 3v277l-28 24-28 24h-90l-30-15-29-16-6 16-6 15h-69l-5-13zm-150-390c-3-8-4-52-2-98l3-84 23-3 22-3v81h70v40h-70v40h80v40h-121l-5-13zm148-84 3-98h54l54 1 19 23 18 24-6 21c-4 12-10 22-14 24l-8 3 11 29 11 29-19 20-18 21h-108l3-97zm86 40-3-18-18-3-17-3v41h41l-3-17zm-4-59c30-12 12-44-25-44h-9v50h9c5 0 16-3 25-6zm101 29c-35-104-35-107-13-111l18-3 11 25 12 26h55l6-25 6-25h20c10 0 21 3 23 8 3 4-9 48-27 97l-31 90-25 3-26 3-29-88zm65-9v-14h-28l5 20 5 20 9-6c5-3 9-12 9-20zm-1495-34-7-11 44-40c153-142 410-265 638-305l95-16 160 5 160 5 97 25c105 28 210 71 229 94l12 14-11 11-12 12-117-18c-65-10-172-20-239-23l-121-6-109 12c-245 25-467 88-682 192-67 32-124 59-126 59-3 0-8-5-11-10zm1382-110c-21-6-51-17-67-25l-30-16v-32l78 5c42 3 83 3 90 1l12-5v-59l-26-61-25-61 11-11 12-11 41 46 42 46 18 49c9 27 17 63 17 80v32l-14 11-15 12-53 4-53 4-38-9z"/>
    </g>
    <g fill="#e29954" transform="matrix(.1 0 0 -.1 0 300)">
      <path d="M1752 1988c-7-7-12-22-12-35v-23l25-16 25-16 25 16 25 16v20c0 10-7 26-16 34l-15 16h-23c-12 0-27-5-34-12zm-1190-15c-11-20-142-397-142-407 0-3 20-6 44-6h44l14 43 13 42h148l15-42 14-43h100l-7 18c-4 9-33 89-65 178-32 88-65 177-74 197l-15 37h-80l-9-17zm72-167c9-27 16-58 16-68v-18h-91l5 18c2 9 12 43 22 75l18 57 7-7c3-5 14-30 23-57zm226-31v-215h79l3 143 3 142 50-95 50-95h60l50 95 50 95 3-142 3-143h89l-2 213-3 212h-109l-54-110-55-110-53 113-53 112H860v-215zm500 175v-40h95c52 0 95-2 95-5s-43-69-95-148l-95-142v-55h320v69l-101 3-100 3 95 140 96 140v75h-310v-40zm387-77c-4-3-7-75-7-159v-152l41-4c22-2 42-2 45 1 2 2 4 76 4 163v158h-38c-21 0-42-3-45-7zm150 0c-4-3-7-75-7-160v-153h90v230l26 10c36 14 60 12 78-6l16-15v-219h90v227l-11 31-10 31-24 15-24 16h-83l-30-17-29-18-10 18-10 17h-28c-15 0-31-3-34-7zm397-12-31-19-16-41-17-41v-91l20-39 20-40 30-15 29-15h77l22 16 22 15v-51l-20-20-20-20h-44c-25 0-57 5-72 10-32 12-30 13-38-26l-7-31 28-11c15-6 43-14 61-17l33-7 49 12 50 12 29 33 29 34 7 53c3 29 5 112 3 183l-3 130-33 3-32 3-6-16-6-16-24 16-23 15h-86l-31-19zm137-61 19-11v-138l-19-11c-11-5-29-10-41-10h-21l-24 25-25 24v87l16 22 15 22h30c17 0 39-5 50-10zm-681-405v-95h40v69l33 3 32 3v30l-32 3-33 3v39h80v40h-120v-95zm147 88c-4-3-7-46-7-95v-88h101l20 10 19 11v27c0 16-5 33-11 39l-11 11 11 20 11 21-6 16c-4 8-15 20-25 25-20 11-92 13-102 3zm83-53v-20h-40v40h40v-20zm5-75v-20l-22-3-23-3v52l23-3 22-3v-20zm120 123c-2-7-18-50-34-95l-30-83h47l5 20 5 20h61l6-20 6-20h20c24 0 24 0-9 100l-29 85-21 3-22 3-5-13zm40-85 6-23h-43l6 16c3 9 6 23 6 32v16l9-9c5-6 12-20 16-32zm-1495-37v-14l53-44c167-142 398-250 617-289l75-14 140 1h140l88 18c103 20 247 70 280 96l22 19-10 9-10 10-125-20-125-19-210 5-210 4-122 26c-164 35-311 85-470 161l-133 64v-13zm1340-124-45-18-3-15-3-16 88 1 88 1-1-37-1-37-22-50c-25-58-26-71-7-71h14l24 33c36 47 56 89 68 143l11 49-22 17-21 18-62-1h-61l-45-17z"/>
    </g>
    <g fill="#8c99a5" transform="matrix(.1 0 0 -.1 0 300)">
      <path d="M1752 1988c-7-7-12-22-12-35v-23l25-16 25-16 25 16 25 16v20c0 10-7 26-16 34l-15 16h-23c-12 0-27-5-34-12zm-1193-35c-6-15-33-93-60-173s-54-155-59-168c-6-13-10-29-10-37v-15h67l21 50 21 51 73-3 72-3 17-45 17-45 41-3 41-3v7c0 6-14 46-108 304l-38 105-42 3-42 3-11-28zm80-145c11-40 21-76 21-80v-8H560v11c0 24 41 149 49 149 4 0 18-33 30-72zm231-39v-210l33 3 32 3 5 145 5 145 10-14c6-8 28-51 50-95l40-81h60l47 90c25 49 51 91 57 93l11 4v-292h70v420h-101l-50-105c-28-58-54-107-58-110l-8-5-52 110-51 110H870v-211zm494 196c-4-8-4-22 0-30l5-15h180l5-9 6-9-95-142-95-142v-58h300v70h-190v12c0 6 6 19 14 27 7 9 50 71 95 137l81 122v52h-301l-5-15zm383-92c-4-3-7-75-7-159v-152l41-4c22-2 42-2 45 1 2 2 4 76 4 163v158h-38c-21 0-42-3-45-7zm150 0c-4-3-7-75-7-160v-153h90v230l26 10c36 14 60 12 78-6l16-15v-219h90v227l-11 31-10 31-24 15-24 16h-83l-30-17-29-18-10 18-10 17h-28c-15 0-31-3-34-7zm397-12-31-19-16-41-17-41v-91l20-39 20-40 30-15 29-15h77l22 16 22 15v-51l-20-20-20-20h-44c-25 0-57 5-72 10-32 12-30 13-38-26l-7-31 28-11c15-6 43-14 61-17l33-7 49 12 50 12 29 33 29 34 7 53c3 29 5 112 3 183l-3 130-33 3-32 3-6-16-6-16-24 16-23 15h-86l-31-19zm137-61 19-11v-138l-19-11c-11-5-29-10-41-10h-21l-24 25-25 24v87l16 22 15 22h30c17 0 39-5 50-10zm-681-405v-95h40v69l33 3 32 3v30l-32 3-33 3v39h80v40h-120v-95zm147 88c-4-3-7-46-7-95v-88h101l20 10 19 11v27c0 16-5 33-11 39l-11 11 11 20 11 21-6 16c-4 8-15 20-25 25-20 11-92 13-102 3zm83-53v-20h-40v40h40v-20zm5-75v-20l-22-3-23-3v52l23-3 22-3v-20zm120 123c-2-7-18-50-34-95l-30-83h47l5 20 5 20h61l6-20 6-20h20c24 0 24 0-9 100l-29 85-21 3-22 3-5-13zm40-85 6-23h-43l6 16c3 9 6 23 6 32v16l9-9c5-6 12-20 16-32zm-1485-42c0-13 90-88 165-138 140-94 329-169 499-198l89-15h234l89 15c102 17 258 68 294 95l25 19-7 6-7 7-108-18-108-18h-200l-200 1-95 17c-212 38-387 95-562 182l-108 54v-9zm1405-108c-11-2-39-9-62-15l-43-10-12-16-13-15 76 7 76 7 16-7 17-6v-73l-24-58-24-57 8-5 8-5 28 32c34 41 61 101 70 154l6 40-14 11c-15 12-84 22-113 16z"/>
    </g>
    <g fill="#f37708" transform="matrix(.1 0 0 -.1 0 300)">
      <path d="m1755 1980-18-20 11-25 12-25h19c11 0 26 3 35 6l16 6v57l-19 11c-27 14-35 13-56-10zm-1196-27c-6-15-33-93-60-173s-54-155-59-168c-6-13-10-29-10-37v-15h67l21 50 21 51 73-3 72-3 17-45 17-45 41-3 41-3v7c0 6-14 46-108 304l-38 105-42 3-42 3-11-28zm80-145c11-40 21-76 21-80v-8H560v11c0 24 41 149 49 149 4 0 18-33 30-72zm231-39v-210l33 3 32 3 5 145 5 145 10-14c6-8 28-51 50-95l40-81h60l47 90c25 49 51 91 57 93l11 4v-292h70v420h-101l-50-105c-28-58-54-107-58-110l-8-5-52 110-51 110H870v-211zm494 196c-4-8-4-22 0-30l5-15h180l5-9 6-9-95-142-95-142v-58h300v70h-190v12c0 6 6 19 14 27 7 9 50 71 95 137l81 122v52h-301l-5-15zm651-104c-47-25-45-25-45-6v15h-70v-310h80v226l12 12 12 12h72l12-12 12-12v-226h80v259l-23 26-22 26-40 5-40 5-40-20zm295 6c-13-7-34-27-46-45l-22-32-7-39-6-39 11-41 11-42 27-30 27-30 41-6 41-5 31 16 32 17v-60l-27-21-28-22-45 6c-25 3-55 8-67 12l-23 6v-60l31-11c18-6 55-11 83-11h51l35 18 35 19 17 34 18 34v335h-68l-4-11-3-10-30 15c-36 19-81 20-115 3zm115-59 25-11v-143l-12-12-12-12h-29c-15 0-37 5-47 10l-19 10-11 41-11 40 11 35 12 35 22 9c29 12 41 12 71-2zm-675-93v-155h80v310h-80v-155zm7-231c-4-4-7-47-7-96v-88h40v80h60v20h-60v60h82l-4 13-5 12-49 3c-27 2-53 0-57-4zm356-6c-6-7-21-44-33-83-13-38-25-76-28-82l-4-13h32l10 25 10 25h60l6-25 6-25h40l-4 13c-3 6-15 44-28 82-23 70-36 95-50 95-4 0-12-6-17-12zm32-80 7-28h-42v13c0 6 3 22 6 35l7 23 8-8c4-4 11-20 14-35zm-245-8v-90h86l22 16 22 15v19c0 10-7 25-15 34l-15 15 10 6c14 9 13 48-2 63l-12 12h-96v-90zm80 55 12-14-7-11c-3-5-17-10-31-10h-24v18c0 34 28 43 50 17zm13-77c2-7 2-19-1-25l-4-13h-58v50h58l5-12zm-1333-17c0-13 90-88 165-138 140-94 329-169 499-198l89-15h234l89 15c102 17 258 68 294 95l25 19-7 6-7 7-108-18-108-18h-200l-200 1-95 17c-212 38-387 95-562 182l-108 54v-9zm1405-108c-11-2-39-9-62-15l-43-10-12-16-13-15 76 7 76 7 16-7 17-6v-73l-24-58-24-57 8-5 8-5 28 32c34 41 61 101 70 154l6 40-14 11c-15 12-84 22-113 16z"/>
    </g>
    <g fill="#0f3150" transform="matrix(.1 0 0 -.1 0 300)">
      <path d="m1755 1980-18-20 11-25 12-25h19c11 0 26 3 35 6l16 6v57l-19 11c-27 14-35 13-56-10zm260-119c-47-25-45-25-45-6v15h-70v-310h80v226l12 12 12 12h72l12-12 12-12v-226h80v259l-23 26-22 26-40 5-40 5-40-20zm295 6c-13-7-34-27-46-45l-22-32-7-39-6-39 11-41 11-42 27-30 27-30 41-6 41-5 31 16 32 17v-60l-27-21-28-22-45 6c-25 3-55 8-67 12l-23 6v-60l31-11c18-6 55-11 83-11h51l35 18 35 19 17 34 18 34v335h-68l-4-11-3-10-30 15c-36 19-81 20-115 3zm115-59 25-11v-143l-12-12-12-12h-29c-15 0-37 5-47 10l-19 10-11 41-11 40 11 35 12 35 22 9c29 12 41 12 71-2zm-675-93v-155h80v310h-80v-155zm7-231c-4-4-7-47-7-96v-88h40v80h60v20h-60v60h82l-4 13-5 12-49 3c-27 2-53 0-57-4zm356-6c-6-7-21-44-33-83-13-38-25-76-28-82l-4-13h32l10 25 10 25h60l6-25 6-25h40l-4 13c-3 6-15 44-28 82-23 70-36 95-50 95-4 0-12-6-17-12zm32-80 7-28h-42v13c0 6 3 22 6 35l7 23 8-8c4-4 11-20 14-35zm-245-8v-90h86l22 16 22 15v19c0 10-7 25-15 34l-15 15 10 6c14 9 13 48-2 63l-12 12h-96v-90zm80 55 12-14-7-11c-3-5-17-10-31-10h-24v18c0 34 28 43 50 17zm13-77c2-7 2-19-1-25l-4-13h-58v50h58l5-12z"/>
    </g>
  </g>
</svg>